<svg width="16" height="16" viewBox="0 0 16 16" fill="none" xmlns="http://www.w3.org/2000/svg">
<path fill-rule="evenodd" clip-rule="evenodd" d="M7.27652 0.99857C7.52205 0.90593 7.76359 0.833344 7.99999 0.833344C8.23645 0.833344 8.47792 0.90593 8.72352 0.99857C8.97205 1.09233 9.28252 1.23014 9.66972 1.40201C10.2388 1.65463 10.9899 1.94456 11.7955 2.17356C12.3835 2.34067 12.8587 2.4758 13.2188 2.61541C13.5807 2.75573 13.9087 2.92978 14.1296 3.22217C14.3435 3.50534 14.4257 3.83617 14.4635 4.19295C14.5001 4.53732 14.5 4.96942 14.5 5.49256V7.45554C14.5 9.49281 13.5804 11.1083 12.4689 12.3124C11.3609 13.5127 10.0408 14.3293 9.17072 14.7885L9.12872 14.8107C8.75819 15.0065 8.45532 15.1667 7.99999 15.1667C7.54472 15.1667 7.24185 15.0065 6.87125 14.8107L6.82925 14.7885C5.95922 14.3293 4.63918 13.5127 3.53113 12.3124C2.41964 11.1083 1.5 9.49281 1.5 7.45554V5.49258C1.49999 4.96942 1.49998 4.53732 1.53646 4.19295C1.57425 3.83617 1.65654 3.50534 1.87044 3.22217C2.09129 2.92978 2.41937 2.75573 2.78123 2.61541C3.14128 2.47579 3.61659 2.34068 4.2045 2.17357C5.01013 1.94456 5.76121 1.65464 6.33029 1.40202C6.71745 1.23015 7.02792 1.09233 7.27652 0.99857ZM9.66539 5.66668C9.66539 6.58712 8.91919 7.33334 7.99872 7.33334C7.07825 7.33334 6.33203 6.58712 6.33203 5.66668C6.33203 4.7462 7.07825 4.00001 7.99872 4.00001C8.91919 4.00001 9.66539 4.7462 9.66539 5.66668ZM9.85959 8.66748C8.72045 7.99974 7.27979 7.99974 6.14065 8.66748C5.9343 8.78154 5.46314 9.04294 5.2139 9.28308C5.05866 9.43261 4.87335 9.66388 4.83895 9.97368C4.80099 10.3155 4.95907 10.6103 5.20259 10.8387C5.57564 11.1885 6.05672 11.5 6.69372 11.5H9.30652C9.94352 11.5 10.4247 11.1885 10.7977 10.8387C11.0412 10.6103 11.1993 10.3155 11.1613 9.97368C11.1269 9.66388 10.9416 9.43261 10.7864 9.28308C10.5371 9.04294 10.066 8.78154 9.85959 8.66748Z" fill="white" fill-opacity="0.5"/>
</svg>
