<svg width="16" height="16" viewBox="0 0 16 16" fill="none" xmlns="http://www.w3.org/2000/svg">
<path d="M5.48175 4.55204L7.2459 1.10932C7.44961 0.71208 7.94259 0.553185 8.34594 0.752822C8.5028 0.83227 8.63114 0.958571 8.71058 1.11543L10.3769 4.43593C10.5114 4.70687 10.7783 4.89224 11.0838 4.92891L14.5714 5.33837C15.046 5.39337 15.3842 5.81709 15.3271 6.28359C15.3047 6.47508 15.2151 6.65435 15.0745 6.7888L12.3163 9.45335C12.2063 9.56132 12.1513 9.7141 12.1716 9.86688L12.63 13.4624C12.6952 13.9778 12.3244 14.4484 11.8009 14.5115C11.6033 14.536 11.4016 14.4993 11.2264 14.4056L8.31335 12.8451C8.10352 12.7331 7.84888 12.729 7.63499 12.837L4.61802 14.3547C4.19226 14.5685 3.67279 14.4015 3.45482 13.9839C3.37334 13.827 3.34482 13.6498 3.36926 13.4767L3.61168 11.8266C3.7278 11.0199 4.23911 10.3191 4.97655 9.94837L8.32964 8.27182C8.41928 8.227 8.45391 8.11904 8.40909 8.03144C8.37242 7.96218 8.29705 7.92347 8.22167 7.9357L4.12096 8.51016C3.49353 8.59776 2.85795 8.4246 2.367 8.03144L1.00213 6.93955C0.613044 6.62787 0.553968 6.06562 0.869721 5.68061C1.01639 5.50338 1.22825 5.38726 1.46048 5.35671L4.96025 4.91669C5.18433 4.88817 5.3799 4.75168 5.48175 4.55204Z" fill="white"/>
</svg>
