<svg width="16" height="16" viewBox="0 0 16 16" fill="none" xmlns="http://www.w3.org/2000/svg">
<path fill-rule="evenodd" clip-rule="evenodd" d="M1.39998 3.0037C1 3.7887 1 4.81632 1 6.87156V9.12844C1 11.1837 1 12.2113 1.39998 12.9963C1.75181 13.6868 2.3132 14.2482 3.0037 14.6C3.7887 15 4.81632 15 6.87156 15H9.12844C11.1837 15 12.2113 15 12.9963 14.6C13.6868 14.2482 14.2482 13.6868 14.6 12.9963C15 12.2113 15 11.1837 15 9.12844V6.87156C15 4.81632 15 3.7887 14.6 3.0037C14.2482 2.3132 13.6868 1.75181 12.9963 1.39998C12.2113 1 11.1837 1 9.12844 1H6.87156C4.81632 1 3.7887 1 3.0037 1.39998C2.3132 1.75181 1.75181 2.3132 1.39998 3.0037ZM13.6954 11.4968C13.6954 10.9423 13.2852 10.7012 12.7543 10.7012L10.5482 10.7008C10.7683 10.4237 11.0274 10.1294 11.2986 9.82136C12.2898 8.69531 13.4419 7.38646 13.4419 6.07066C13.4419 4.5396 12.2488 3.56271 10.7652 3.56271C9.28195 3.56271 7.93134 4.78071 7.93134 6.29971C7.93134 6.77027 8.23311 7.18016 8.81178 7.18016C9.36453 7.18016 9.50214 6.73487 9.64595 6.26949C9.80335 5.76016 9.96817 5.22677 10.6928 5.22677C11.1875 5.22677 11.5612 5.66077 11.5612 6.15504C11.5612 6.58904 11.3563 6.96316 11.1393 7.2766C10.5167 8.17765 9.81615 8.96746 9.11724 9.75546L9.11722 9.75549L9.1172 9.75551L9.11718 9.75553C8.7872 10.1276 8.45757 10.4992 8.13667 10.882C8.01611 11.0267 7.85939 11.244 7.85939 11.4968C7.85939 12.0518 8.26928 12.2929 8.79973 12.2929H12.8271C13.2852 12.2929 13.6954 12.0518 13.6954 11.4968ZM3.68421 6.07538C3.38047 5.77163 2.88801 5.77163 2.58427 6.07538C2.28053 6.37912 2.28053 6.87158 2.58427 7.17532L3.40928 8.00033L2.5844 8.82521C2.28066 9.12895 2.28066 9.62141 2.5844 9.92515C2.88814 10.2289 3.3806 10.2289 3.68434 9.92515L4.50922 9.10027L5.33413 9.92518C5.63787 10.2289 6.13033 10.2289 6.43407 9.92518C6.73781 9.62144 6.73781 9.12898 6.43407 8.82524L5.60917 8.00033L6.4342 7.17529C6.73794 6.87155 6.73794 6.37909 6.4342 6.07535C6.13046 5.77161 5.638 5.77161 5.33426 6.07535L4.50922 6.90038L3.68421 6.07538Z" fill="white" fill-opacity="0.5"/>
</svg>
