<svg width="16" height="16" viewBox="0 0 16 16" fill="none" xmlns="http://www.w3.org/2000/svg">
<path fill-rule="evenodd" clip-rule="evenodd" d="M1.39998 3.0037C1 3.7887 1 4.81632 1 6.87156V9.12844C1 11.1837 1 12.2113 1.39998 12.9963C1.75181 13.6868 2.3132 14.2482 3.0037 14.6C3.7887 15 4.81632 15 6.87156 15H9.12844C11.1837 15 12.2113 15 12.9963 14.6C13.6868 14.2482 14.2482 13.6868 14.6 12.9963C15 12.2113 15 11.1837 15 9.12844V6.87156C15 4.81632 15 3.7887 14.6 3.0037C14.2482 2.3132 13.6868 1.75181 12.9963 1.39998C12.2113 1 11.1837 1 9.12844 1H6.87156C4.81632 1 3.7887 1 3.0037 1.39998C2.3132 1.75181 1.75181 2.3132 1.39998 3.0037ZM12.2328 7.61417C12.8962 7.19223 13.2213 6.52917 13.2213 5.76928C13.2213 4.82895 12.3899 3.56273 10.6531 3.56273C9.31453 3.56273 8.02459 4.57578 8.02459 5.51612C8.02459 5.96217 8.31392 6.40823 8.8082 6.40823C9.18413 6.40823 9.35483 6.16002 9.53973 5.89113C9.75824 5.57339 9.9966 5.22678 10.6169 5.22678C11.1598 5.22678 11.4849 5.5764 11.4849 6.0349C11.4849 6.71352 11.0449 6.82809 10.6111 6.94106C10.1891 7.05092 9.77304 7.15926 9.77304 7.78334C9.77304 8.46443 10.2428 8.53495 10.7325 8.60847C11.266 8.68856 11.8233 8.77221 11.8233 9.65234C11.8233 10.2917 11.3165 10.7739 10.6896 10.7739C9.92222 10.7739 9.64817 10.3264 9.40875 9.93545C9.22305 9.63222 9.05818 9.36301 8.70009 9.36301C8.26609 9.36301 7.77142 9.70056 7.77142 10.1707C7.77142 11.1231 8.88053 12.4376 10.6651 12.4376C12.3774 12.4376 13.7035 11.2196 13.7035 9.77251C13.7035 8.82012 13.1008 8.01239 12.2328 7.61417ZM3.69344 6.07545C3.3897 5.77171 2.89724 5.77171 2.5935 6.07545C2.28976 6.37919 2.28976 6.87165 2.5935 7.17539L3.41851 8.0004L2.59363 8.82528C2.28989 9.12902 2.28989 9.62148 2.59363 9.92522C2.89737 10.229 3.38983 10.229 3.69357 9.92522L4.51845 9.10034L5.34336 9.92525C5.6471 10.229 6.13956 10.229 6.4433 9.92525C6.74704 9.62151 6.74704 9.12905 6.4433 8.82531L5.61839 8.0004L6.44343 7.17536C6.74717 6.87162 6.74717 6.37916 6.44343 6.07542C6.13969 5.77168 5.64723 5.77168 5.34349 6.07542L4.51845 6.90046L3.69344 6.07545Z" fill="white" fill-opacity="0.5"/>
</svg>
