<svg width="24" height="24" viewBox="0 0 24 24" fill="none" xmlns="http://www.w3.org/2000/svg">
<path d="M7 15L14 8.5" stroke="white" stroke-width="1.5" stroke-linecap="round" stroke-linejoin="round"/>
<path d="M6.50712 7.34594L13.8263 3.77425C16.8675 2.29017 18.3881 1.54814 19.358 2.29255C20.3279 3.03695 20.0508 4.73341 19.4966 8.1263L18.5419 13.9709C18.1795 16.1894 17.9983 17.2986 17.1975 17.7823C16.3967 18.266 15.3564 17.8945 13.2759 17.1515L6.91147 14.8787C3.02065 13.4891 1.07524 12.7944 1.00208 11.4312C0.928903 10.068 2.78831 9.16069 6.50712 7.34594Z" stroke="white" stroke-width="1.5" stroke-linecap="round" stroke-linejoin="round"/>
<path d="M7 15.2726V17.5C7 19.8736 7 21.0604 7.71019 21.2497C8.42039 21.4389 9.5042 19.975 11 18L11.8359 16.7961" stroke="white" stroke-width="1.5" stroke-linecap="round" stroke-linejoin="round"/>
</svg>
