<svg width="24" height="24" viewBox="0 0 24 24" fill="none" xmlns="http://www.w3.org/2000/svg">
<path fill-rule="evenodd" clip-rule="evenodd" d="M22.5303 1.96966C22.7294 2.16868 22.8002 2.46238 22.7138 2.73025L21.0283 7.95533C20.9668 8.14574 20.9315 8.25633 20.9099 8.34088C20.9025 8.36671 20.8946 8.43816 20.922 8.51735C20.9556 8.62004 21.0079 8.7554 21.0924 8.97323C21.5173 10.0679 21.75 11.2577 21.75 12.5C21.75 17.8848 17.3848 22.25 12 22.25C6.61524 22.25 2.25002 17.8848 2.25002 12.5C2.25002 11.2577 2.48273 10.0679 2.90763 8.97323C2.99217 8.7554 3.04443 8.62004 3.07802 8.51735C3.10823 8.43061 3.09866 8.36356 3.09011 8.34088C3.06853 8.25633 3.03321 8.14574 2.97178 7.95533L1.28624 2.73025C1.19983 2.46238 1.27067 2.16868 1.46969 1.96966C1.66871 1.77064 1.96241 1.6998 2.23028 1.78621L7.94644 3.63017C9.18167 3.06482 10.555 2.74999 12 2.74999C13.445 2.74999 14.8184 3.06482 16.0536 3.63017L21.7698 1.78621C22.0376 1.6998 22.3313 1.77064 22.5303 1.96966ZM6.93298 8.76242C6.52044 8.79966 6.21584 9.16432 6.25308 9.57685C6.29031 9.98914 6.65451 10.2933 7.06674 10.2565C7.06674 10.2565 7.183 10.2501 7.24383 10.2492C7.36647 10.2474 7.53699 10.2505 7.72649 10.2699C7.92804 10.2906 8.12123 10.3269 8.29196 10.3797L8.2175 10.6159C7.93235 11.5205 8.69425 12.2488 9.47644 12.2488C9.89751 12.2488 10.3008 12.057 10.5422 11.7114C10.7983 11.3447 10.8349 10.8445 10.5553 10.4206C10.3496 10.1086 10.0532 9.72984 9.66236 9.41941C9.09859 8.97168 8.37374 8.82849 7.87965 8.77778C7.61848 8.75097 7.19098 8.73912 6.93298 8.76242ZM17.0672 8.76242C17.4797 8.79966 17.7843 9.16432 17.7471 9.57685C17.7099 9.98914 17.3457 10.2933 16.9334 10.2565C16.9334 10.2565 16.8172 10.2501 16.7563 10.2492C16.6337 10.2474 16.4632 10.2505 16.2737 10.2699C16.0721 10.2906 15.8789 10.3269 15.7082 10.3797L15.7827 10.6159C16.0678 11.5205 15.3059 12.2488 14.5237 12.2488C14.1027 12.2488 13.6994 12.057 13.458 11.7114C13.2018 11.3447 13.1653 10.8445 13.4448 10.4206C13.6506 10.1086 13.9469 9.72984 14.3378 9.41941C14.9016 8.97168 15.6264 8.82849 16.1205 8.77778C16.3817 8.75097 16.8092 8.73912 17.0672 8.76242ZM9.45054 15.9003C9.11938 15.6515 8.64922 15.7183 8.40042 16.0495C8.15161 16.3806 8.21838 16.8508 8.54954 17.0996C9.5106 17.8216 10.7064 18.2498 12 18.2498C13.2937 18.2498 14.4895 17.8216 15.4505 17.0996C15.7817 16.8508 15.8485 16.3806 15.5997 16.0495C15.3509 15.7183 14.8807 15.6515 14.5495 15.9003C13.8393 16.4339 12.9577 16.7498 12 16.7498C11.0424 16.7498 10.1607 16.4339 9.45054 15.9003Z" fill="white"/>
</svg>
